<mxfile host="app.diagrams.net" modified="2024-01-15T10:00:12.953Z" agent="Mozilla/5.0 (Macintosh; Intel Mac OS X 10_15_7) AppleWebKit/537.36 (KHTML, like Gecko) Chrome/120.0.0.0 Safari/537.36" etag="2rCj4hZKX5uX7rGlw-fr" version="22.1.18" type="github">
  <diagram name="Page-1" id="Q5lq0plXF-P5TOnfgZBf">
    <mxGraphModel dx="984" dy="659" grid="1" gridSize="10" guides="1" tooltips="1" connect="1" arrows="1" fold="1" page="1" pageScale="1" pageWidth="827" pageHeight="1169" math="0" shadow="0">
      <root>
        <mxCell id="0" />
        <mxCell id="1" parent="0" />
        <mxCell id="XjZqAPtE26e0R3bt4ySP-1" value="Polling Handler" style="shape=module;align=left;spacingLeft=20;align=center;verticalAlign=top;whiteSpace=wrap;html=1;fillColor=#d5e8d4;strokeColor=#82b366;" parent="1" vertex="1">
          <mxGeometry x="420" y="217" width="150" height="50" as="geometry" />
        </mxCell>
        <mxCell id="XjZqAPtE26e0R3bt4ySP-2" value="StarVersServer" style="shape=umlFrame;whiteSpace=wrap;html=1;pointerEvents=0;width=130;height=30;" parent="1" vertex="1">
          <mxGeometry x="40" y="40" width="560" height="370" as="geometry" />
        </mxCell>
        <mxCell id="XjZqAPtE26e0R3bt4ySP-3" value="RDF-star Store&lt;br&gt;&amp;lt;&amp;lt;Database&amp;gt;&amp;gt;" style="shape=module;align=left;spacingLeft=20;align=center;verticalAlign=top;whiteSpace=wrap;html=1;fillColor=#ffe6cc;strokeColor=#d79b00;" parent="1" vertex="1">
          <mxGeometry x="630" y="120" width="170" height="50" as="geometry" />
        </mxCell>
        <mxCell id="XjZqAPtE26e0R3bt4ySP-4" value="Management Store&lt;br&gt;&amp;lt;&amp;lt;Database&amp;gt;&amp;gt;" style="shape=module;align=left;spacingLeft=20;align=center;verticalAlign=top;whiteSpace=wrap;html=1;fillColor=#ffe6cc;strokeColor=#d79b00;" parent="1" vertex="1">
          <mxGeometry x="630" y="313" width="170" height="50" as="geometry" />
        </mxCell>
        <mxCell id="XjZqAPtE26e0R3bt4ySP-5" value="Management API&lt;br&gt;&amp;lt;&amp;lt;REST&amp;gt;&amp;gt;" style="shape=module;align=left;spacingLeft=20;align=center;verticalAlign=top;whiteSpace=wrap;html=1;fillColor=#dae8fc;strokeColor=#6c8ebf;" parent="1" vertex="1">
          <mxGeometry x="420" y="313" width="150" height="50" as="geometry" />
        </mxCell>
        <mxCell id="XjZqAPtE26e0R3bt4ySP-6" value="StarVers Handler" style="shape=module;align=left;spacingLeft=20;align=center;verticalAlign=top;whiteSpace=wrap;html=1;fillColor=#d5e8d4;strokeColor=#82b366;" parent="1" vertex="1">
          <mxGeometry x="420" y="120" width="150" height="50" as="geometry" />
        </mxCell>
        <mxCell id="XjZqAPtE26e0R3bt4ySP-7" value="Diff Event Webhook&lt;br&gt;&amp;lt;&amp;lt;REST&amp;gt;&amp;gt;" style="shape=module;align=left;spacingLeft=20;align=center;verticalAlign=top;whiteSpace=wrap;html=1;fillColor=#dae8fc;strokeColor=#6c8ebf;" parent="1" vertex="1">
          <mxGeometry x="60" y="313" width="150" height="50" as="geometry" />
        </mxCell>
        <mxCell id="XjZqAPtE26e0R3bt4ySP-8" value="User" style="shape=umlActor;verticalLabelPosition=bottom;verticalAlign=top;html=1;" parent="1" vertex="1">
          <mxGeometry x="399" y="460" width="30" height="60" as="geometry" />
        </mxCell>
        <mxCell id="XjZqAPtE26e0R3bt4ySP-9" value="RDF Store&lt;br&gt;&amp;lt;&amp;lt;Ext. Dataset&amp;gt;&amp;gt;" style="shape=module;align=left;spacingLeft=20;align=center;verticalAlign=top;whiteSpace=wrap;html=1;fillColor=#ffe6cc;strokeColor=#d79b00;" parent="1" vertex="1">
          <mxGeometry x="630" y="217" width="170" height="50" as="geometry" />
        </mxCell>
        <mxCell id="XjZqAPtE26e0R3bt4ySP-10" value="RDF Delta Query Handler" style="shape=module;align=left;spacingLeft=20;align=center;verticalAlign=top;whiteSpace=wrap;html=1;fillColor=#d5e8d4;strokeColor=#82b366;" parent="1" vertex="1">
          <mxGeometry x="80" y="120" width="150" height="50" as="geometry" />
        </mxCell>
        <mxCell id="XjZqAPtE26e0R3bt4ySP-20" value="" style="rounded=0;orthogonalLoop=1;jettySize=auto;html=1;endArrow=halfCircle;endFill=0;endSize=6;strokeWidth=1;sketch=0;" parent="1" edge="1">
          <mxGeometry relative="1" as="geometry">
            <mxPoint x="420" y="135" as="sourcePoint" />
            <mxPoint x="340" y="135" as="targetPoint" />
            <Array as="points">
              <mxPoint x="350" y="135" />
            </Array>
          </mxGeometry>
        </mxCell>
        <mxCell id="XjZqAPtE26e0R3bt4ySP-21" value="" style="rounded=0;orthogonalLoop=1;jettySize=auto;html=1;endArrow=oval;endFill=0;sketch=0;sourcePerimeterSpacing=0;targetPerimeterSpacing=0;endSize=10;" parent="1" edge="1">
          <mxGeometry relative="1" as="geometry">
            <mxPoint x="230" y="135" as="sourcePoint" />
            <mxPoint x="340" y="135" as="targetPoint" />
          </mxGeometry>
        </mxCell>
        <mxCell id="XjZqAPtE26e0R3bt4ySP-22" value="" style="ellipse;whiteSpace=wrap;html=1;align=center;aspect=fixed;fillColor=none;strokeColor=none;resizable=0;perimeter=centerPerimeter;rotatable=0;allowArrows=0;points=[];outlineConnect=1;" parent="1" vertex="1">
          <mxGeometry x="335" y="140" width="10" height="10" as="geometry" />
        </mxCell>
        <mxCell id="XjZqAPtE26e0R3bt4ySP-23" value="Get RDF Delta iff available" style="text;html=1;align=center;verticalAlign=middle;resizable=0;points=[];autosize=1;strokeColor=none;fillColor=none;fontSize=11;" parent="1" vertex="1">
          <mxGeometry x="254" y="105" width="150" height="30" as="geometry" />
        </mxCell>
        <mxCell id="XjZqAPtE26e0R3bt4ySP-24" value="" style="endArrow=blockThin;endSize=12;dashed=1;html=1;rounded=0;exitX=1;exitY=0.5;exitDx=0;exitDy=0;entryX=0.056;entryY=0.502;entryDx=0;entryDy=0;entryPerimeter=0;endFill=1;" parent="1" source="XjZqAPtE26e0R3bt4ySP-6" target="XjZqAPtE26e0R3bt4ySP-3" edge="1">
          <mxGeometry width="160" relative="1" as="geometry">
            <mxPoint x="430" y="190" as="sourcePoint" />
            <mxPoint x="590" y="190" as="targetPoint" />
          </mxGeometry>
        </mxCell>
        <mxCell id="XjZqAPtE26e0R3bt4ySP-25" value="" style="endArrow=blockThin;endSize=12;dashed=1;html=1;rounded=0;exitX=1;exitY=0.5;exitDx=0;exitDy=0;entryX=0.056;entryY=0.502;entryDx=0;entryDy=0;entryPerimeter=0;endFill=1;" parent="1" edge="1">
          <mxGeometry width="160" relative="1" as="geometry">
            <mxPoint x="540" y="337.76" as="sourcePoint" />
            <mxPoint x="640" y="337.76" as="targetPoint" />
          </mxGeometry>
        </mxCell>
        <mxCell id="XjZqAPtE26e0R3bt4ySP-26" value="" style="endArrow=blockThin;endSize=12;dashed=1;html=1;rounded=0;exitX=1;exitY=0.5;exitDx=0;exitDy=0;entryX=0.056;entryY=0.502;entryDx=0;entryDy=0;entryPerimeter=0;endFill=1;" parent="1" edge="1">
          <mxGeometry width="160" relative="1" as="geometry">
            <mxPoint x="540" y="241.76" as="sourcePoint" />
            <mxPoint x="640" y="241.76" as="targetPoint" />
          </mxGeometry>
        </mxCell>
        <mxCell id="XjZqAPtE26e0R3bt4ySP-27" value="Query API&lt;br&gt;&amp;lt;&amp;lt;REST&amp;gt;&amp;gt;" style="shape=module;align=left;spacingLeft=20;align=center;verticalAlign=top;whiteSpace=wrap;html=1;fillColor=#dae8fc;strokeColor=#6c8ebf;" parent="1" vertex="1">
          <mxGeometry x="241" y="313" width="150" height="50" as="geometry" />
        </mxCell>
        <mxCell id="XjZqAPtE26e0R3bt4ySP-28" value="" style="rounded=0;orthogonalLoop=1;jettySize=auto;html=1;endArrow=halfCircle;endFill=0;endSize=6;strokeWidth=1;sketch=0;exitX=0.5;exitY=0;exitDx=0;exitDy=0;" parent="1" source="XjZqAPtE26e0R3bt4ySP-5" target="XjZqAPtE26e0R3bt4ySP-30" edge="1">
          <mxGeometry relative="1" as="geometry">
            <mxPoint x="520" y="255" as="sourcePoint" />
          </mxGeometry>
        </mxCell>
        <mxCell id="XjZqAPtE26e0R3bt4ySP-31" value="Start/Stop Polling" style="edgeLabel;html=1;align=center;verticalAlign=middle;resizable=0;points=[];" parent="XjZqAPtE26e0R3bt4ySP-28" vertex="1" connectable="0">
          <mxGeometry x="0.784" y="-9" relative="1" as="geometry">
            <mxPoint x="46" y="-3" as="offset" />
          </mxGeometry>
        </mxCell>
        <mxCell id="XjZqAPtE26e0R3bt4ySP-29" value="" style="rounded=0;orthogonalLoop=1;jettySize=auto;html=1;endArrow=oval;endFill=0;sketch=0;sourcePerimeterSpacing=0;targetPerimeterSpacing=0;endSize=10;exitX=0.5;exitY=1;exitDx=0;exitDy=0;" parent="1" source="XjZqAPtE26e0R3bt4ySP-1" target="XjZqAPtE26e0R3bt4ySP-30" edge="1">
          <mxGeometry relative="1" as="geometry">
            <mxPoint x="480" y="255" as="sourcePoint" />
          </mxGeometry>
        </mxCell>
        <mxCell id="XjZqAPtE26e0R3bt4ySP-30" value="" style="ellipse;whiteSpace=wrap;html=1;align=center;aspect=fixed;fillColor=none;strokeColor=none;resizable=0;perimeter=centerPerimeter;rotatable=0;allowArrows=0;points=[];outlineConnect=1;" parent="1" vertex="1">
          <mxGeometry x="490" y="280" width="10" height="10" as="geometry" />
        </mxCell>
        <mxCell id="XjZqAPtE26e0R3bt4ySP-32" value="" style="rounded=0;orthogonalLoop=1;jettySize=auto;html=1;endArrow=halfCircle;endFill=0;endSize=6;strokeWidth=1;sketch=0;exitX=0.5;exitY=0;exitDx=0;exitDy=0;" parent="1" source="XjZqAPtE26e0R3bt4ySP-1" target="XjZqAPtE26e0R3bt4ySP-34" edge="1">
          <mxGeometry relative="1" as="geometry">
            <mxPoint x="590" y="207" as="sourcePoint" />
          </mxGeometry>
        </mxCell>
        <mxCell id="XjZqAPtE26e0R3bt4ySP-33" value="" style="rounded=0;orthogonalLoop=1;jettySize=auto;html=1;endArrow=oval;endFill=0;sketch=0;sourcePerimeterSpacing=0;targetPerimeterSpacing=0;endSize=10;exitX=0.5;exitY=1;exitDx=0;exitDy=0;" parent="1" source="XjZqAPtE26e0R3bt4ySP-6" target="XjZqAPtE26e0R3bt4ySP-34" edge="1">
          <mxGeometry relative="1" as="geometry">
            <mxPoint x="380" y="205" as="sourcePoint" />
          </mxGeometry>
        </mxCell>
        <mxCell id="XjZqAPtE26e0R3bt4ySP-34" value="" style="ellipse;whiteSpace=wrap;html=1;align=center;aspect=fixed;fillColor=none;strokeColor=none;resizable=0;perimeter=centerPerimeter;rotatable=0;allowArrows=0;points=[];outlineConnect=1;" parent="1" vertex="1">
          <mxGeometry x="490" y="190" width="10" height="10" as="geometry" />
        </mxCell>
        <mxCell id="XjZqAPtE26e0R3bt4ySP-35" value="Pass RDF graph" style="text;html=1;align=center;verticalAlign=middle;resizable=0;points=[];autosize=1;strokeColor=none;fillColor=none;fontSize=11;" parent="1" vertex="1">
          <mxGeometry x="498" y="180" width="100" height="30" as="geometry" />
        </mxCell>
        <mxCell id="XjZqAPtE26e0R3bt4ySP-36" value="" style="rounded=0;orthogonalLoop=1;jettySize=auto;html=1;endArrow=halfCircle;endFill=0;endSize=6;strokeWidth=1;sketch=0;exitX=0.5;exitY=0;exitDx=0;exitDy=0;" parent="1" source="XjZqAPtE26e0R3bt4ySP-27" target="XjZqAPtE26e0R3bt4ySP-38" edge="1">
          <mxGeometry relative="1" as="geometry">
            <mxPoint x="345" y="255" as="sourcePoint" />
          </mxGeometry>
        </mxCell>
        <mxCell id="XjZqAPtE26e0R3bt4ySP-37" value="" style="rounded=0;orthogonalLoop=1;jettySize=auto;html=1;endArrow=oval;endFill=0;sketch=0;sourcePerimeterSpacing=0;targetPerimeterSpacing=0;endSize=10;exitX=0;exitY=1;exitDx=10;exitDy=0;exitPerimeter=0;" parent="1" source="XjZqAPtE26e0R3bt4ySP-6" target="XjZqAPtE26e0R3bt4ySP-38" edge="1">
          <mxGeometry relative="1" as="geometry">
            <mxPoint x="305" y="255" as="sourcePoint" />
          </mxGeometry>
        </mxCell>
        <mxCell id="XjZqAPtE26e0R3bt4ySP-38" value="" style="ellipse;whiteSpace=wrap;html=1;align=center;aspect=fixed;fillColor=none;strokeColor=none;resizable=0;perimeter=centerPerimeter;rotatable=0;allowArrows=0;points=[];outlineConnect=1;" parent="1" vertex="1">
          <mxGeometry x="400" y="200" width="10" height="10" as="geometry" />
        </mxCell>
        <mxCell id="XjZqAPtE26e0R3bt4ySP-39" value="Query&amp;nbsp;(versioned) RDF graph" style="text;html=1;align=center;verticalAlign=middle;resizable=0;points=[];autosize=1;strokeColor=none;fillColor=none;rotation=-50;fontSize=11;" parent="1" vertex="1">
          <mxGeometry x="273" y="221" width="170" height="30" as="geometry" />
        </mxCell>
        <mxCell id="XjZqAPtE26e0R3bt4ySP-42" value="" style="ellipse;whiteSpace=wrap;html=1;align=center;aspect=fixed;fillColor=none;strokeColor=none;resizable=0;perimeter=centerPerimeter;rotatable=0;allowArrows=0;points=[];outlineConnect=1;" parent="1" vertex="1">
          <mxGeometry x="345" y="180" width="10" height="10" as="geometry" />
        </mxCell>
        <mxCell id="XjZqAPtE26e0R3bt4ySP-45" value="" style="rounded=0;orthogonalLoop=1;jettySize=auto;html=1;endArrow=halfCircle;endFill=0;endSize=6;strokeWidth=1;sketch=0;exitX=0;exitY=0;exitDx=0;exitDy=35;exitPerimeter=0;entryX=0.597;entryY=0.252;entryDx=0;entryDy=0;entryPerimeter=0;" parent="1" edge="1">
          <mxGeometry relative="1" as="geometry">
            <mxPoint x="421" y="155" as="sourcePoint" />
            <mxPoint x="341" y="155" as="targetPoint" />
            <Array as="points">
              <mxPoint x="381" y="155" />
            </Array>
          </mxGeometry>
        </mxCell>
        <mxCell id="XjZqAPtE26e0R3bt4ySP-46" value="" style="rounded=0;orthogonalLoop=1;jettySize=auto;html=1;endArrow=oval;endFill=0;sketch=0;sourcePerimeterSpacing=0;targetPerimeterSpacing=0;endSize=10;exitX=0.5;exitY=0;exitDx=0;exitDy=0;" parent="1" source="XjZqAPtE26e0R3bt4ySP-7" target="XjZqAPtE26e0R3bt4ySP-47" edge="1">
          <mxGeometry relative="1" as="geometry">
            <mxPoint x="210" y="253" as="sourcePoint" />
          </mxGeometry>
        </mxCell>
        <mxCell id="XjZqAPtE26e0R3bt4ySP-48" value="Trigger Change Event" style="edgeLabel;html=1;align=center;verticalAlign=middle;resizable=0;points=[];rotation=323;" parent="XjZqAPtE26e0R3bt4ySP-46" vertex="1" connectable="0">
          <mxGeometry x="-0.0737" y="1" relative="1" as="geometry">
            <mxPoint x="-9" y="-6" as="offset" />
          </mxGeometry>
        </mxCell>
        <mxCell id="XjZqAPtE26e0R3bt4ySP-47" value="" style="ellipse;whiteSpace=wrap;html=1;align=center;aspect=fixed;fillColor=none;strokeColor=none;resizable=0;perimeter=centerPerimeter;rotatable=0;allowArrows=0;points=[];outlineConnect=1;" parent="1" vertex="1">
          <mxGeometry x="335" y="150" width="10" height="10" as="geometry" />
        </mxCell>
        <mxCell id="XjZqAPtE26e0R3bt4ySP-49" value="User" style="shape=umlActor;verticalLabelPosition=bottom;verticalAlign=top;html=1;" parent="1" vertex="1">
          <mxGeometry x="120" y="460" width="30" height="60" as="geometry" />
        </mxCell>
        <mxCell id="XjZqAPtE26e0R3bt4ySP-50" value="" style="html=1;verticalAlign=bottom;endArrow=block;curved=0;rounded=0;startArrow=block;startFill=1;exitX=0.5;exitY=1;exitDx=0;exitDy=0;entryX=0.7;entryY=0;entryDx=0;entryDy=0;entryPerimeter=0;" parent="1" source="XjZqAPtE26e0R3bt4ySP-5" target="XjZqAPtE26e0R3bt4ySP-8" edge="1">
          <mxGeometry width="80" relative="1" as="geometry">
            <mxPoint x="280" y="470" as="sourcePoint" />
            <mxPoint x="360" y="470" as="targetPoint" />
            <Array as="points">
              <mxPoint x="495" y="460" />
            </Array>
          </mxGeometry>
        </mxCell>
        <mxCell id="XjZqAPtE26e0R3bt4ySP-52" value="Manage Versioning of specific Graph" style="edgeLabel;html=1;align=center;verticalAlign=middle;resizable=0;points=[];" parent="XjZqAPtE26e0R3bt4ySP-50" vertex="1" connectable="0">
          <mxGeometry x="0.1847" y="1" relative="1" as="geometry">
            <mxPoint x="40" y="9" as="offset" />
          </mxGeometry>
        </mxCell>
        <mxCell id="XjZqAPtE26e0R3bt4ySP-51" value="" style="html=1;verticalAlign=bottom;endArrow=block;curved=0;rounded=0;startArrow=block;startFill=1;exitX=0.5;exitY=1;exitDx=0;exitDy=0;entryX=0.288;entryY=0.007;entryDx=0;entryDy=0;entryPerimeter=0;fontStyle=1" parent="1" edge="1">
          <mxGeometry width="80" relative="1" as="geometry">
            <mxPoint x="316" y="363" as="sourcePoint" />
            <mxPoint x="407.6400000000001" y="460.41999999999996" as="targetPoint" />
            <Array as="points">
              <mxPoint x="316" y="460" />
            </Array>
          </mxGeometry>
        </mxCell>
        <mxCell id="XjZqAPtE26e0R3bt4ySP-53" value="Query (versioned) graph" style="edgeLabel;html=1;align=center;verticalAlign=middle;resizable=0;points=[];" parent="XjZqAPtE26e0R3bt4ySP-51" vertex="1" connectable="0">
          <mxGeometry x="0.4034" relative="1" as="geometry">
            <mxPoint x="-22" y="10" as="offset" />
          </mxGeometry>
        </mxCell>
        <mxCell id="XjZqAPtE26e0R3bt4ySP-56" value="" style="html=1;verticalAlign=bottom;endArrow=block;curved=0;rounded=0;startArrow=block;startFill=1;exitX=0.5;exitY=1;exitDx=0;exitDy=0;entryX=0.5;entryY=0;entryDx=0;entryDy=0;entryPerimeter=0;fontStyle=1" parent="1" source="XjZqAPtE26e0R3bt4ySP-7" target="XjZqAPtE26e0R3bt4ySP-49" edge="1">
          <mxGeometry width="80" relative="1" as="geometry">
            <mxPoint x="326" y="373" as="sourcePoint" />
            <mxPoint x="418" y="470" as="targetPoint" />
          </mxGeometry>
        </mxCell>
        <mxCell id="XjZqAPtE26e0R3bt4ySP-57" value="Inform about Graph Update" style="edgeLabel;html=1;align=center;verticalAlign=middle;resizable=0;points=[];" parent="XjZqAPtE26e0R3bt4ySP-56" vertex="1" connectable="0">
          <mxGeometry x="0.4034" relative="1" as="geometry">
            <mxPoint x="-5" y="-1" as="offset" />
          </mxGeometry>
        </mxCell>
        <mxCell id="EVBN_QlwKhAqYw0uFnNJ-1" value="" style="ellipse;shape=cloud;whiteSpace=wrap;html=1;fillColor=#f5f5f5;fontColor=#333333;strokeColor=#666666;" vertex="1" parent="1">
          <mxGeometry x="760" y="205" width="60" height="40" as="geometry" />
        </mxCell>
      </root>
    </mxGraphModel>
  </diagram>
</mxfile>
